<svg width="187" height="203" viewBox="0 0 187 203" fill="none" xmlns="http://www.w3.org/2000/svg">
<g filter="url(#filter0_i)">
<ellipse cx="93.5" cy="101.5" rx="93.5" ry="101.5" fill="#A5A5A5" fill-opacity="0.43"/>
</g>
<g filter="url(#filter1_i)">
<path d="M187 101.5C187 118.192 183.208 134.626 175.96 149.347C168.711 164.068 158.231 176.621 145.446 185.894C132.661 195.168 117.967 200.875 102.665 202.511C87.3625 204.147 71.9248 201.661 57.7191 195.274C43.5134 188.886 30.9781 178.794 21.2235 165.891C11.469 152.988 4.79632 137.673 1.79658 121.302C-1.20316 104.931 -0.437388 88.0091 4.02608 72.0361C8.48954 56.0631 16.5129 41.5315 27.3855 29.7287L93.5 101.5H187Z" fill="#E6EA3E" fill-opacity="0.85"/>
</g>
<ellipse cx="93" cy="101" rx="74" ry="80" fill="white"/>
<defs>
<filter id="filter0_i" x="0" y="0" width="187" height="203" filterUnits="userSpaceOnUse" color-interpolation-filters="sRGB">
<feFlood flood-opacity="0" result="BackgroundImageFix"/>
<feBlend mode="normal" in="SourceGraphic" in2="BackgroundImageFix" result="shape"/>
<feColorMatrix in="SourceAlpha" type="matrix" values="0 0 0 0 0 0 0 0 0 0 0 0 0 0 0 0 0 0 127 0" result="hardAlpha"/>
<feOffset/>
<feGaussianBlur stdDeviation="1"/>
<feComposite in2="hardAlpha" operator="arithmetic" k2="-1" k3="1"/>
<feColorMatrix type="matrix" values="0 0 0 0 0 0 0 0 0 0 0 0 0 0 0 0 0 0 0.25 0"/>
<feBlend mode="normal" in2="shape" result="effect1_innerShadow"/>
</filter>
<filter id="filter1_i" x="-7.62939e-06" y="29.7287" width="187" height="173.271" filterUnits="userSpaceOnUse" color-interpolation-filters="sRGB">
<feFlood flood-opacity="0" result="BackgroundImageFix"/>
<feBlend mode="normal" in="SourceGraphic" in2="BackgroundImageFix" result="shape"/>
<feColorMatrix in="SourceAlpha" type="matrix" values="0 0 0 0 0 0 0 0 0 0 0 0 0 0 0 0 0 0 127 0" result="hardAlpha"/>
<feOffset/>
<feGaussianBlur stdDeviation="1"/>
<feComposite in2="hardAlpha" operator="arithmetic" k2="-1" k3="1"/>
<feColorMatrix type="matrix" values="0 0 0 0 0 0 0 0 0 0 0 0 0 0 0 0 0 0 0.25 0"/>
<feBlend mode="normal" in2="shape" result="effect1_innerShadow"/>
</filter>
</defs>
</svg>
