<?xml version="1.0" encoding="iso-8859-1"?>
<!-- Generator: Adobe Illustrator 19.0.0, SVG Export Plug-In . SVG Version: 6.00 Build 0)  -->
<svg version="1.1" id="Capa_1" xmlns="http://www.w3.org/2000/svg" xmlns:xlink="http://www.w3.org/1999/xlink" x="0px" y="0px"
	 viewBox="0 0 368 368" style="enable-background:new 0 0 368 368;" xml:space="preserve">
<g>
	<g>
		<g>
			<path d="M333.864,82.56h-0.008c0-0.048-0.016-0.024-0.016-0.024h-0.008c-0.056-0.064-0.12-0.128-0.176-0.184l-80-80
				C252.16,0.848,250.128,0,248,0h-15.64c-0.232,0-0.488,0-0.72,0H56C42.768,0,32,10.768,32,24v320c0,13.232,10.768,24,23.992,24
				H312c13.232,0,24-10.768,24-24V88C336,85.896,335.184,83.984,333.864,82.56z M320,344c0,4.408-3.584,8-8,8H55.992
				c-4.408,0-7.992-3.584-7.992-8V24c0-4.408,3.584-8,8-8h168v32H88c-4.424,0-8,3.584-8,8v48c0,4.416,3.576,8,8,8s8-3.584,8-8V64
				h128v40c0,4.416,3.576,8,8,8h88V344z M320,96h-80V16h4.688L320,91.32V96z"/>
			<path d="M189.256,129.968c-1.232-1.072-2.712-1.704-4.232-1.904c-0.008,0-0.008,0-0.016,0c-0.504-0.072-1.032-0.088-1.528-0.048
				h-0.008c0,0,0,0-0.008,0c-1.856,0.12-3.696,0.896-5.12,2.328l-48,48c-1.56,1.56-2.344,3.608-2.344,5.656
				c0,2.048,0.784,4.096,2.344,5.656c3.128,3.128,8.184,3.128,11.312,0L176,155.312V296c0,4.416,3.576,8,8,8s8-3.584,8-8V155.312
				l34.344,34.344c3.128,3.128,8.184,3.128,11.312,0c3.128-3.128,3.128-8.184,0-11.312l-47.96-47.96
				C189.552,130.24,189.408,130.104,189.256,129.968z"/>
		</g>
	</g>
</g>
<g>
</g>
<g>
</g>
<g>
</g>
<g>
</g>
<g>
</g>
<g>
</g>
<g>
</g>
<g>
</g>
<g>
</g>
<g>
</g>
<g>
</g>
<g>
</g>
<g>
</g>
<g>
</g>
<g>
</g>
</svg>
